<?xml version="1.0" standalone="no"?>
<!DOCTYPE svg PUBLIC "-//W3C//DTD SVG 20010904//EN"
 "http://www.w3.org/TR/2001/REC-SVG-20010904/DTD/svg10.dtd">
<svg version="1.0" xmlns="http://www.w3.org/2000/svg"
 width="900.000000pt" height="195.000000pt" viewBox="0 0 900.000000 195.000000"
 preserveAspectRatio="xMidYMid meet">
<metadata>
Created by potrace 1.10, written by Peter Selinger 2001-2011
</metadata>
<g transform="translate(0.000000,195.000000) scale(0.100000,-0.100000)"
fill="#000000" stroke="none">
<path d="M0 975 l0 -975 970 0 970 0 0 975 0 975 -970 0 -970 0 0 -975z m1847
874 c11 -9 13 -168 13 -890 l0 -878 -22 -12 c-16 -9 -241 -10 -880 -7 -798 4
-860 5 -876 21 -16 17 -17 76 -20 866 -1 549 1 858 8 875 5 15 19 30 29 34 34
12 1732 3 1748 -9z"/>
<path d="M856 1751 c-29 -31 -62 -81 -142 -216 -26 -44 -70 -116 -99 -160 -29
-44 -63 -99 -76 -122 -38 -66 -118 -195 -145 -232 -13 -19 -24 -44 -24 -55 0
-12 24 -58 53 -101 66 -101 99 -155 109 -178 4 -9 32 -54 61 -100 30 -45 97
-154 150 -243 53 -88 105 -168 115 -178 18 -15 58 -17 448 -17 236 0 435 0
442 1 22 0 13 20 -55 131 -38 61 -79 129 -92 152 -13 23 -47 78 -76 122 -28
44 -78 124 -109 178 -31 53 -75 123 -96 154 -22 31 -40 65 -40 76 0 11 24 56
53 101 74 113 88 135 112 181 12 22 51 85 87 140 36 55 71 112 79 127 8 16 45
77 82 138 38 60 65 114 62 120 -4 6 -159 10 -439 10 l-432 0 -28 -29z"/>
<path d="M2443 1812 c-7 -7 -13 -33 -13 -57 0 -56 19 -67 104 -63 102 4 96 23
96 -322 0 -275 1 -298 18 -313 24 -22 95 -22 112 -2 10 12 12 85 11 308 -2
240 1 295 12 311 13 17 25 20 90 18 68 -3 77 -1 91 20 20 28 21 68 2 93 -12
17 -31 19 -262 19 -192 1 -251 -2 -261 -12z"/>
<path d="M3062 1818 c-9 -9 -12 -109 -12 -389 0 -416 -5 -389 65 -389 18 0 42
8 54 18 19 16 21 29 23 193 3 173 3 176 31 217 24 37 32 42 66 42 31 0 44 -6
65 -31 26 -30 26 -31 26 -219 0 -213 2 -220 70 -220 66 0 70 14 70 243 0 212
-4 235 -53 293 -14 17 -47 39 -73 49 -44 17 -50 17 -101 1 -30 -10 -57 -24
-60 -32 -6 -17 -43 -19 -44 -1 0 6 0 55 1 109 1 89 0 97 -22 112 -26 19 -89
21 -106 4z"/>
<path d="M4465 1610 c-61 -45 -66 -46 -87 -17 -21 29 -63 36 -99 17 -18 -10
-19 -24 -19 -275 0 -295 0 -295 69 -295 64 0 69 13 73 195 3 129 7 166 21 192
19 36 70 68 94 59 27 -11 43 14 43 66 0 92 -27 108 -95 58z"/>
<path d="M4751 1620 c-46 -18 -105 -78 -114 -115 -3 -11 -13 -40 -22 -65 -21
-56 -16 -190 9 -235 9 -16 16 -35 16 -41 0 -6 20 -30 45 -53 44 -40 46 -41
118 -41 59 0 80 4 100 20 28 23 56 26 58 8 5 -48 -29 -109 -69 -127 -40 -19
-143 -13 -180 9 -27 16 -37 18 -48 9 -20 -17 -18 -92 4 -111 41 -36 184 -49
274 -25 56 15 106 59 136 121 21 41 22 56 22 333 0 211 -3 292 -12 301 -18 18
-67 14 -104 -8 l-33 -21 -54 31 c-60 34 -83 35 -146 10z m179 -149 c28 -33 30
-41 30 -124 l0 -89 -39 -39 c-49 -49 -75 -50 -124 -3 -62 61 -73 139 -29 225
21 43 34 56 61 65 46 15 66 8 101 -35z"/>
<path d="M5353 1622 c-34 -10 -71 -26 -82 -36 -25 -23 -28 -78 -5 -101 15 -14
19 -14 53 6 50 31 149 33 181 4 29 -26 40 -56 29 -77 -7 -13 -28 -17 -106 -20
-109 -4 -149 -21 -192 -83 -31 -45 -30 -163 1 -205 52 -71 179 -94 244 -45 18
14 38 25 44 25 7 0 21 -11 32 -25 14 -18 29 -25 53 -25 64 0 66 8 59 228 -9
277 -27 318 -154 356 -64 19 -77 19 -157 -2z m176 -334 c5 -13 6 -30 3 -38
-12 -34 -57 -83 -89 -97 -31 -12 -38 -12 -59 2 -87 57 -31 155 89 155 40 0 49
-3 56 -22z"/>
<path d="M6535 1623 c-60 -18 -118 -70 -147 -133 -32 -69 -37 -221 -10 -283
28 -64 69 -113 119 -142 36 -22 54 -25 133 -25 139 0 188 32 178 116 -4 37
-27 42 -79 15 -60 -32 -126 -28 -177 9 -41 29 -60 66 -48 95 4 12 35 15 168
17 l163 3 -3 89 c-2 74 -7 97 -26 130 -35 59 -64 83 -131 106 -67 23 -73 23
-140 3z m122 -118 c29 -21 59 -83 46 -96 -5 -5 -51 -9 -104 -7 -86 3 -94 5
-97 24 -3 24 32 72 62 84 33 14 70 11 93 -5z"/>
<path d="M7165 1622 c-16 -10 -32 -20 -33 -25 -2 -4 -13 -12 -24 -18 -16 -9
-24 -6 -43 15 -17 18 -34 26 -57 26 -61 0 -60 8 -60 -286 0 -245 2 -269 18
-281 21 -16 68 -17 95 -3 17 10 19 22 19 140 0 164 12 224 55 267 26 26 39 32
61 28 42 -8 56 7 62 63 4 41 1 53 -17 71 -25 25 -35 25 -76 3z"/>
<path d="M3668 1609 c-16 -9 -18 -29 -18 -197 1 -210 7 -257 41 -306 34 -51
67 -66 141 -66 56 0 68 4 98 29 l35 29 34 -30 c29 -26 40 -29 74 -25 22 3 44
11 48 19 14 22 11 532 -3 546 -13 13 -96 16 -114 4 -8 -4 -13 -66 -16 -177 -5
-190 -17 -233 -77 -268 -36 -21 -58 -17 -92 19 -23 25 -24 31 -27 217 -3 164
-6 194 -19 205 -20 14 -81 15 -105 1z"/>
<path d="M5794 1603 c-15 -15 -16 -38 -12 -223 5 -202 6 -208 32 -253 38 -64
79 -87 152 -87 47 0 67 5 96 25 38 25 68 32 68 16 0 -34 69 -53 111 -31 18 10
19 24 19 280 0 265 0 269 -21 281 -21 11 -104 8 -115 -4 -4 -3 -5 -68 -5 -144
2 -180 -8 -237 -45 -273 -45 -45 -78 -48 -114 -12 l-30 30 0 194 c0 138 -3
197 -12 206 -19 19 -104 15 -124 -5z"/>
<path d="M2570 883 c-8 -3 -18 -11 -22 -17 -11 -17 -9 -728 2 -746 6 -10 26
-15 65 -15 39 0 59 5 65 15 5 8 10 79 10 158 0 107 3 142 13 142 12 0 25 -17
132 -175 95 -141 91 -137 173 -141 86 -3 105 10 76 52 -11 15 -23 34 -29 43
-5 9 -48 68 -96 131 -47 63 -95 131 -107 151 -21 35 -21 35 -2 67 11 18 70 94
130 168 61 75 110 144 108 153 -2 12 -17 17 -58 19 -29 2 -64 1 -76 -2 -20 -5
-178 -197 -224 -272 -32 -52 -40 -31 -40 109 0 72 -4 138 -9 146 -9 14 -86 24
-111 14z"/>
<path d="M6500 883 c-8 -3 -18 -11 -22 -17 -11 -16 -10 -728 1 -745 13 -20 92
-26 116 -8 19 15 20 27 20 382 0 351 -1 367 -19 381 -20 14 -68 17 -96 7z"/>
<path d="M6768 879 c-17 -9 -18 -38 -18 -384 0 -360 1 -375 19 -385 31 -16 76
-12 96 10 23 25 42 25 80 0 63 -42 195 -19 246 43 34 41 63 147 64 227 0 157
-62 268 -165 295 -58 15 -118 6 -141 -22 -6 -7 -22 -13 -35 -13 -24 0 -24 1
-24 103 0 88 -3 106 -18 120 -21 19 -77 22 -104 6z m281 -325 c55 -39 79 -172
45 -252 -21 -52 -62 -92 -94 -92 -35 0 -89 57 -101 106 -21 93 -8 173 36 220
36 38 76 45 114 18z"/>
<path d="M8530 870 c-19 -19 -20 -33 -20 -377 0 -197 4 -364 9 -372 5 -7 29
-15 54 -18 36 -4 49 -1 64 14 18 18 20 30 15 122 -3 68 -1 101 6 101 16 0 40
-28 63 -72 27 -52 87 -139 107 -155 17 -14 89 -17 141 -7 21 5 31 12 31 25 0
11 -6 19 -14 19 -14 0 -70 69 -122 150 -16 24 -37 52 -46 62 -39 39 -31 90 23
149 46 49 109 138 109 154 0 12 -13 15 -61 15 -33 0 -68 -4 -78 -10 -10 -5
-42 -45 -71 -90 -80 -121 -85 -115 -85 104 0 164 -2 179 -19 192 -29 21 -82
18 -106 -6z"/>
<path d="M4436 860 c-52 -16 -66 -37 -66 -100 0 -63 -9 -76 -55 -82 -34 -4
-52 -39 -41 -82 5 -19 13 -26 32 -26 14 0 34 -5 45 -10 18 -10 19 -23 19 -171
0 -180 6 -206 64 -257 34 -29 42 -32 104 -32 86 0 94 6 90 61 -3 39 -6 44 -28
47 -87 10 -100 39 -100 217 0 125 0 125 26 135 14 6 38 10 53 10 36 0 51 17
51 57 0 38 -21 53 -74 53 -46 0 -59 24 -55 103 5 87 -3 95 -65 77z"/>
<path d="M3303 685 c-39 -6 -79 -17 -87 -24 -18 -15 -23 -116 -7 -126 6 -3 25
4 43 15 24 15 50 20 100 20 60 0 69 -3 87 -26 47 -59 22 -84 -82 -84 -69 0
-86 -4 -121 -26 -55 -35 -98 -96 -103 -148 -7 -54 22 -112 76 -155 34 -27 47
-31 97 -31 33 0 70 7 84 15 70 40 68 40 95 11 20 -22 32 -27 63 -24 l37 3 3
223 c2 203 1 225 -17 260 -28 55 -64 83 -118 93 -26 5 -55 11 -63 13 -8 2 -47
-2 -87 -9z m147 -330 c16 -19 6 -59 -25 -107 -30 -46 -81 -60 -120 -34 -64 42
-46 116 35 141 60 18 95 18 110 0z"/>
<path d="M3975 689 c-16 -4 -46 -17 -65 -28 -36 -20 -36 -20 -65 -1 -34 22
-95 26 -113 8 -9 -9 -12 -85 -12 -280 0 -254 1 -268 19 -278 27 -14 74 -13 94
2 15 11 18 36 21 173 3 171 12 212 54 258 30 32 81 37 108 10 37 -38 44 -77
44 -257 0 -163 1 -176 19 -186 27 -14 74 -13 95 3 17 12 18 31 17 220 -2 160
-5 215 -17 243 -28 67 -54 93 -110 109 -29 8 -54 15 -56 14 -1 0 -16 -5 -33
-10z"/>
<path d="M4887 687 c-50 -9 -65 -17 -112 -63 -76 -73 -99 -126 -100 -236 0
-57 4 -91 13 -100 6 -6 12 -19 12 -28 0 -28 49 -84 108 -122 53 -36 61 -38
136 -38 67 0 86 4 125 26 65 37 89 62 117 116 21 41 24 61 24 153 0 96 -2 111
-26 151 -66 112 -171 162 -297 141z m140 -154 c67 -83 49 -254 -32 -307 -35
-23 -79 -20 -111 7 -33 28 -64 108 -64 164 0 54 31 124 66 152 41 32 109 25
141 -16z"/>
<path d="M5560 686 c-19 -6 -48 -20 -63 -30 -28 -19 -28 -19 -57 3 -29 21 -73
27 -104 15 -14 -5 -16 -39 -16 -280 0 -260 1 -274 19 -284 31 -16 79 -12 101
10 17 17 19 28 14 79 -4 32 -3 111 1 175 l7 117 37 40 c45 46 77 50 118 15
l28 -24 2 -187 c1 -102 5 -195 8 -205 7 -22 61 -36 100 -26 l25 6 0 230 c0
225 -1 231 -24 268 -31 49 -53 66 -102 80 -47 14 -47 14 -94 -2z"/>
<path d="M6046 684 c-89 -18 -106 -33 -106 -96 0 -59 15 -69 64 -38 25 15 52
21 96 22 54 1 64 -2 90 -27 59 -56 35 -85 -69 -85 -92 0 -162 -31 -201 -87
-21 -31 -25 -48 -25 -110 1 -71 2 -74 38 -108 47 -45 74 -55 142 -55 42 0 60
5 83 25 37 31 47 31 84 0 33 -28 65 -32 93 -11 17 12 18 28 16 197 -3 279 -32
347 -163 375 -34 7 -65 13 -68 12 -3 0 -36 -7 -74 -14z m155 -324 c27 -15 24
-51 -11 -98 -50 -70 -94 -80 -141 -33 -34 34 -37 59 -10 92 30 37 123 60 162
39z"/>
<path d="M7539 696 c-3 -3 -34 -9 -69 -15 -79 -13 -100 -33 -100 -97 0 -56 19
-66 71 -36 28 16 55 22 99 22 53 0 64 -3 85 -26 28 -31 33 -69 9 -78 -9 -3
-48 -6 -87 -6 -55 -1 -84 -6 -119 -24 -58 -28 -81 -57 -96 -118 -14 -55 -7
-102 20 -143 35 -53 67 -69 140 -73 61 -4 70 -2 99 22 38 32 52 33 83 1 28
-28 62 -32 91 -11 17 12 18 27 16 177 -4 311 -26 366 -160 394 -83 17 -76 16
-82 11z m92 -336 c36 -20 16 -86 -41 -134 -41 -34 -74 -33 -112 4 -24 25 -29
36 -23 58 9 38 31 59 73 70 50 13 80 14 103 2z"/>
<path d="M8146 685 c-27 -8 -53 -21 -58 -29 -12 -21 -30 -20 -61 5 -20 15 -38
19 -69 17 l-43 -3 -3 -282 -2 -283 25 -6 c30 -7 82 1 102 17 10 9 13 50 13
176 0 173 7 210 49 252 31 31 76 27 112 -8 l29 -29 0 -196 c0 -189 1 -196 21
-207 27 -14 99 -6 110 13 5 7 9 105 9 218 0 189 -2 208 -21 245 -29 55 -65 92
-97 99 -15 3 -36 8 -47 10 -11 3 -42 -2 -69 -9z"/>
</g>
</svg>
